<svg xmlns="http://www.w3.org/2000/svg" width="512" height="512" viewBox="0 0 49.652 49.652" enable-background="new 0 0 49.652 49.652"><g fill="#f35a81"><path d="M21.5 28.94c-.16-.1-.33-.22-.5-.34-.5-.15-1.04-.23-1.58-.24h-.07c-2.5 0-4.72 1.52-4.72 3.26 0 1.9 1.9 3.36 4.3 3.36 3.18 0 4.8-1.1 4.8-3.25 0-.2-.03-.42-.08-.63-.22-.84-1-1.37-2.15-2.16zM19.72 22.35c.6 0 1.1-.24 1.5-.7.62-.7.9-1.84.73-3.06-.3-2.2-1.85-4.02-3.48-4.07h-.06c-.57 0-1.1.24-1.48.7-.6.68-.86 1.78-.7 3 .28 2.18 1.88 4.07 3.48 4.12h.02zM24.83 0C11.13 0 0 11.14 0 24.83 0 38.5 11.14 49.65 24.83 49.65c13.68 0 24.82-11.14 24.82-24.82C49.65 11.13 38.52 0 24.83 0zM21.96 36.9c-.93.3-1.95.42-3 .42-1.2 0-2.34-.13-3.4-.4-2.06-.52-3.58-1.5-4.3-2.77-.3-.55-.45-1.14-.45-1.74 0-.6.16-1.25.45-1.87 1.13-2.4 4.1-4.02 7.4-4.02.02 0 .05 0 .08 0-.26-.46-.4-.95-.4-1.46 0-.26.04-.52.1-.78-3.44-.08-6.02-2.6-6.02-5.94 0-2.35 1.9-4.65 4.58-5.57.8-.28 1.62-.42 2.43-.42h7.4c.24 0 .47.16.54.4.08.24 0 .5-.2.65l-1.66 1.2c-.1.06-.22.1-.34.1h-.6c.77.9 1.22 2.22 1.22 3.68 0 1.62-.82 3.15-2.3 4.32-1.16.9-1.2 1.14-1.2 1.65 0 .28.8 1.2 1.7 1.82 2.06 1.46 2.82 2.9 2.82 5.27 0 2.5-1.9 4.64-4.82 5.5zm16.67-12.65c0 .32-.26.58-.58.58h-4.2v4.2c0 .32-.25.58-.57.58h-1.2c-.32 0-.58-.25-.58-.57v-4.2h-4.2c-.3 0-.57-.25-.57-.58v-1.2c0-.3.26-.57.58-.57h4.2v-4.2c0-.32.26-.58.6-.58h1.18c.32 0 .58.26.58.58v4.2h4.2c.3 0 .57.26.57.58v1.2z"/></g></svg>